<svg width="36" height="36" viewBox="0 0 36 36" fill="none" xmlns="http://www.w3.org/2000/svg">
<path d="M7.78507 9.56991C7.50007 9.56991 7.20007 9.44991 6.99007 9.23991C6.55507 8.80491 6.55507 8.08491 6.99007 7.64991L12.4351 2.20491C12.8701 1.76991 13.5901 1.76991 14.0251 2.20491C14.4601 2.63991 14.4601 3.35991 14.0251 3.79491L8.58007 9.23991C8.35507 9.44991 8.07007 9.56991 7.78507 9.56991Z" fill="#292D32"/>
<path d="M28.2149 9.56991C27.9299 9.56991 27.6449 9.46491 27.4199 9.23991L21.9749 3.79491C21.5399 3.35991 21.5399 2.63991 21.9749 2.20491C22.4099 1.76991 23.1299 1.76991 23.5649 2.20491L29.0099 7.64991C29.4449 8.08491 29.4449 8.80491 29.0099 9.23991C28.7999 9.44991 28.4999 9.56991 28.2149 9.56991Z" fill="#292D32"/>
<path d="M30.315 15.8999C30.21 15.8999 30.105 15.8999 30 15.8999H29.655H6C4.95 15.9149 3.75 15.9149 2.88 15.0449C2.19 14.3699 1.875 13.3199 1.875 11.7749C1.875 7.6499 4.89 7.6499 6.33 7.6499H29.67C31.11 7.6499 34.125 7.6499 34.125 11.7749C34.125 13.3349 33.81 14.3699 33.12 15.0449C32.34 15.8249 31.29 15.8999 30.315 15.8999ZM6.33 13.6499H30.015C30.69 13.6649 31.32 13.6649 31.53 13.4549C31.635 13.3499 31.86 12.9899 31.86 11.7749C31.86 10.0799 31.44 9.8999 29.655 9.8999H6.33C4.545 9.8999 4.125 10.0799 4.125 11.7749C4.125 12.9899 4.365 13.3499 4.455 13.4549C4.665 13.6499 5.31 13.6499 5.97 13.6499H6.33Z" fill="#292D32"/>
<path d="M14.6399 27.45C14.0249 27.45 13.5149 26.94 13.5149 26.325V21C13.5149 20.385 14.0249 19.875 14.6399 19.875C15.2549 19.875 15.7649 20.385 15.7649 21V26.325C15.7649 26.955 15.2549 27.45 14.6399 27.45Z" fill="#292D32"/>
<path d="M21.54 27.45C20.925 27.45 20.415 26.94 20.415 26.325V21C20.415 20.385 20.925 19.875 21.54 19.875C22.155 19.875 22.665 20.385 22.665 21V26.325C22.665 26.955 22.155 27.45 21.54 27.45Z" fill="#292D32"/>
<path d="M22.3351 34.1251H13.2901C7.92012 34.1251 6.72012 30.9301 6.25512 28.1551L4.14012 15.1801C4.03512 14.5651 4.45512 13.9951 5.07012 13.8901C5.68512 13.7851 6.25512 14.2051 6.36012 14.8201L8.47512 27.7801C8.91012 30.4351 9.81012 31.8751 13.2901 31.8751H22.3351C26.1901 31.8751 26.6251 30.5251 27.1201 27.9151L29.6401 14.7901C29.7601 14.1751 30.3451 13.7701 30.9601 13.9051C31.5751 14.0251 31.9651 14.6101 31.8451 15.2251L29.3251 28.3501C28.7401 31.3951 27.7651 34.1251 22.3351 34.1251Z" fill="#292D32"/>
</svg>
