<svg width="343" height="174" viewBox="0 0 343 174" fill="none" xmlns="http://www.w3.org/2000/svg">
<g filter="url(#filter0_d_34_14)">
<rect width="212" height="77" transform="translate(83)" fill="#EFE5D1"/>
<path d="M137.644 64.512C134.358 64.512 131.713 63.5093 129.708 61.504C127.745 59.4987 126.764 56.8107 126.764 53.44V29.696C126.764 26.368 127.745 23.7013 129.708 21.696C131.713 19.6907 134.358 18.688 137.644 18.688C140.972 18.688 143.617 19.6907 145.58 21.696C147.585 23.6587 148.588 26.3253 148.588 29.696V30.784C148.588 31.2107 148.374 31.424 147.948 31.424L144.62 31.616C144.193 31.616 143.98 31.4027 143.98 30.976V29.376C143.98 27.3707 143.404 25.7493 142.252 24.512C141.1 23.2747 139.564 22.656 137.644 22.656C135.766 22.656 134.23 23.2747 133.036 24.512C131.884 25.7493 131.308 27.3707 131.308 29.376V53.824C131.308 55.8293 131.884 57.4507 133.036 58.688C134.23 59.9253 135.766 60.544 137.644 60.544C139.564 60.544 141.1 59.9253 142.252 58.688C143.404 57.4507 143.98 55.8293 143.98 53.824V52.224C143.98 51.7973 144.193 51.584 144.62 51.584L147.948 51.776C148.374 51.776 148.588 51.9893 148.588 52.416V53.44C148.588 56.8107 147.585 59.4987 145.58 61.504C143.574 63.5093 140.929 64.512 137.644 64.512ZM172.734 64.512C169.449 64.512 166.782 63.488 164.734 61.44C162.729 59.392 161.726 56.6827 161.726 53.312V29.888C161.726 26.5173 162.729 23.808 164.734 21.76C166.782 19.712 169.449 18.688 172.734 18.688C176.062 18.688 178.75 19.712 180.798 21.76C182.846 23.808 183.87 26.5173 183.87 29.888V53.312C183.87 56.64 182.846 59.3493 180.798 61.44C178.75 63.488 176.062 64.512 172.734 64.512ZM172.734 60.544C174.697 60.544 176.276 59.904 177.47 58.624C178.708 57.3013 179.326 55.616 179.326 53.568V29.696C179.326 27.6053 178.708 25.92 177.47 24.64C176.276 23.3173 174.697 22.656 172.734 22.656C170.814 22.656 169.257 23.3173 168.062 24.64C166.868 25.92 166.27 27.6053 166.27 29.696V53.568C166.27 55.616 166.868 57.3013 168.062 58.624C169.257 59.904 170.814 60.544 172.734 60.544ZM208.322 64.512C205.036 64.512 202.37 63.488 200.322 61.44C198.316 59.392 197.314 56.6827 197.314 53.312V29.888C197.314 26.5173 198.316 23.808 200.322 21.76C202.37 19.712 205.036 18.688 208.322 18.688C211.65 18.688 214.338 19.712 216.386 21.76C218.434 23.808 219.458 26.5173 219.458 29.888V53.312C219.458 56.64 218.434 59.3493 216.386 61.44C214.338 63.488 211.65 64.512 208.322 64.512ZM208.322 60.544C210.284 60.544 211.863 59.904 213.058 58.624C214.295 57.3013 214.914 55.616 214.914 53.568V29.696C214.914 27.6053 214.295 25.92 213.058 24.64C211.863 23.3173 210.284 22.656 208.322 22.656C206.402 22.656 204.844 23.3173 203.65 24.64C202.455 25.92 201.858 27.6053 201.858 29.696V53.568C201.858 55.616 202.455 57.3013 203.65 58.624C204.844 59.904 206.402 60.544 208.322 60.544ZM234.629 64C234.203 64 233.989 63.7867 233.989 63.36V19.84C233.989 19.4133 234.203 19.2 234.629 19.2H237.893C238.32 19.2 238.533 19.4133 238.533 19.84V59.776C238.533 59.9467 238.619 60.032 238.789 60.032H253.445C253.872 60.032 254.085 60.2453 254.085 60.672V63.36C254.085 63.7867 253.872 64 253.445 64H234.629Z" fill="#10064C"/>
</g>
<g filter="url(#filter1_d_34_14)">
<rect width="308" height="77" transform="translate(35 77)" fill="#EFE5D1"/>
<path d="M96.9915 141C96.6075 141 96.3728 140.808 96.2875 140.424L94.6875 132.488C94.6875 132.403 94.6448 132.339 94.5595 132.296C94.5168 132.253 94.4528 132.232 94.3675 132.232H82.7835C82.6982 132.232 82.6128 132.253 82.5275 132.296C82.4848 132.339 82.4635 132.403 82.4635 132.488L80.8635 140.424C80.8208 140.808 80.5862 141 80.1595 141H76.8955C76.6822 141 76.5115 140.936 76.3835 140.808C76.2982 140.68 76.2768 140.509 76.3195 140.296L85.9195 96.776C86.0048 96.392 86.2395 96.2 86.6235 96.2H90.4635C90.8902 96.2 91.1248 96.392 91.1675 96.776L100.896 140.296V140.424C100.896 140.808 100.704 141 100.32 141H96.9915ZM83.2955 128.264C83.2955 128.435 83.3595 128.52 83.4875 128.52H93.5995C93.7275 128.52 93.7915 128.435 93.7915 128.264L88.6715 103.112C88.6288 102.984 88.5862 102.92 88.5435 102.92C88.5008 102.92 88.4582 102.984 88.4155 103.112L83.2955 128.264ZM123.882 96.136C126.996 96.136 129.514 97.288 131.434 99.592C133.354 101.853 134.314 104.84 134.314 108.552C134.314 112.221 133.375 115.187 131.498 117.448C129.62 119.667 127.146 120.776 124.074 120.776H117.482C117.311 120.776 117.226 120.861 117.226 121.032V140.36C117.226 140.787 117.012 141 116.586 141H113.322C112.895 141 112.682 140.787 112.682 140.36V96.776C112.682 96.3493 112.895 96.136 113.322 96.136H123.882ZM123.306 117.064C125.226 117.064 126.783 116.296 127.978 114.76C129.172 113.224 129.77 111.176 129.77 108.616C129.77 106.056 129.172 104.008 127.978 102.472C126.783 100.893 125.226 100.104 123.306 100.104H117.482C117.311 100.104 117.226 100.189 117.226 100.36V116.808C117.226 116.979 117.311 117.064 117.482 117.064H123.306ZM158.594 96.136C161.709 96.136 164.226 97.288 166.146 99.592C168.066 101.853 169.026 104.84 169.026 108.552C169.026 112.221 168.087 115.187 166.21 117.448C164.333 119.667 161.858 120.776 158.786 120.776H152.194C152.023 120.776 151.938 120.861 151.938 121.032V140.36C151.938 140.787 151.725 141 151.298 141H148.034C147.607 141 147.394 140.787 147.394 140.36V96.776C147.394 96.3493 147.607 96.136 148.034 96.136H158.594ZM158.018 117.064C159.938 117.064 161.495 116.296 162.69 114.76C163.885 113.224 164.482 111.176 164.482 108.616C164.482 106.056 163.885 104.008 162.69 102.472C161.495 100.893 159.938 100.104 158.018 100.104H152.194C152.023 100.104 151.938 100.189 151.938 100.36V116.808C151.938 116.979 152.023 117.064 152.194 117.064H158.018ZM197.379 141C196.995 141 196.76 140.808 196.675 140.424L195.075 132.488C195.075 132.403 195.032 132.339 194.947 132.296C194.904 132.253 194.84 132.232 194.755 132.232H183.171C183.086 132.232 183 132.253 182.915 132.296C182.872 132.339 182.851 132.403 182.851 132.488L181.251 140.424C181.208 140.808 180.974 141 180.547 141H177.283C177.07 141 176.899 140.936 176.771 140.808C176.686 140.68 176.664 140.509 176.707 140.296L186.307 96.776C186.392 96.392 186.627 96.2 187.011 96.2H190.851C191.278 96.2 191.512 96.392 191.555 96.776L201.283 140.296V140.424C201.283 140.808 201.091 141 200.707 141H197.379ZM183.683 128.264C183.683 128.435 183.747 128.52 183.875 128.52H193.987C194.115 128.52 194.179 128.435 194.179 128.264L189.059 103.112C189.016 102.984 188.974 102.92 188.931 102.92C188.888 102.92 188.846 102.984 188.803 103.112L183.683 128.264ZM231.053 141C230.669 141 230.413 140.829 230.285 140.488L223.757 120.712C223.714 120.584 223.629 120.52 223.501 120.52H217.933C217.762 120.52 217.677 120.605 217.677 120.776V140.36C217.677 140.787 217.464 141 217.037 141H213.773C213.346 141 213.133 140.787 213.133 140.36V96.84C213.133 96.4133 213.346 96.2 213.773 96.2H224.333C227.448 96.2 229.965 97.352 231.885 99.656C233.805 101.917 234.765 104.883 234.765 108.552C234.765 111.325 234.168 113.715 232.973 115.72C231.778 117.725 230.157 119.133 228.109 119.944C227.938 119.987 227.874 120.093 227.917 120.264L234.893 140.296L234.957 140.552C234.957 140.851 234.765 141 234.381 141H231.053ZM217.933 100.168C217.762 100.168 217.677 100.253 217.677 100.424V116.616C217.677 116.787 217.762 116.872 217.933 116.872H223.693C225.656 116.872 227.234 116.125 228.429 114.632C229.624 113.096 230.221 111.069 230.221 108.552C230.221 106.035 229.624 104.008 228.429 102.472C227.234 100.936 225.656 100.168 223.693 100.168H217.933ZM268.196 99.528C268.196 99.9547 267.983 100.168 267.556 100.168H252.708C252.537 100.168 252.452 100.253 252.452 100.424V116.296C252.452 116.467 252.537 116.552 252.708 116.552H262.052C262.479 116.552 262.692 116.765 262.692 117.192V119.944C262.692 120.371 262.479 120.584 262.052 120.584H252.708C252.537 120.584 252.452 120.669 252.452 120.84V136.776C252.452 136.947 252.537 137.032 252.708 137.032H267.556C267.983 137.032 268.196 137.245 268.196 137.672V140.36C268.196 140.787 267.983 141 267.556 141H248.548C248.121 141 247.908 140.787 247.908 140.36V96.84C247.908 96.4133 248.121 96.2 248.548 96.2H267.556C267.983 96.2 268.196 96.4133 268.196 96.84V99.528ZM282.385 141C281.959 141 281.745 140.787 281.745 140.36V96.84C281.745 96.4133 281.959 96.2 282.385 96.2H285.649C286.076 96.2 286.289 96.4133 286.289 96.84V136.776C286.289 136.947 286.375 137.032 286.545 137.032H301.201C301.628 137.032 301.841 137.245 301.841 137.672V140.36C301.841 140.787 301.628 141 301.201 141H282.385Z" fill="#10064C"/>
</g>
<path d="M66 9.5L83 0V20H48L66 9.5Z" fill="#F9B857"/>
<path d="M18 86.5L35 77V97H0L18 86.5Z" fill="#F9B857"/>
<path d="M325 164.5L308 174V154H343L325 164.5Z" fill="#F9B857"/>
<defs>
<filter id="filter0_d_34_14" x="48" y="0" width="247" height="97" filterUnits="userSpaceOnUse" color-interpolation-filters="sRGB">
<feFlood flood-opacity="0" result="BackgroundImageFix"/>
<feColorMatrix in="SourceAlpha" type="matrix" values="0 0 0 0 0 0 0 0 0 0 0 0 0 0 0 0 0 0 127 0" result="hardAlpha"/>
<feOffset dx="-35" dy="20"/>
<feComposite in2="hardAlpha" operator="out"/>
<feColorMatrix type="matrix" values="0 0 0 0 0.976471 0 0 0 0 0.721569 0 0 0 0 0.341176 0 0 0 1 0"/>
<feBlend mode="normal" in2="BackgroundImageFix" result="effect1_dropShadow_34_14"/>
<feBlend mode="normal" in="SourceGraphic" in2="effect1_dropShadow_34_14" result="shape"/>
</filter>
<filter id="filter1_d_34_14" x="0" y="77" width="343" height="97" filterUnits="userSpaceOnUse" color-interpolation-filters="sRGB">
<feFlood flood-opacity="0" result="BackgroundImageFix"/>
<feColorMatrix in="SourceAlpha" type="matrix" values="0 0 0 0 0 0 0 0 0 0 0 0 0 0 0 0 0 0 127 0" result="hardAlpha"/>
<feOffset dx="-35" dy="20"/>
<feComposite in2="hardAlpha" operator="out"/>
<feColorMatrix type="matrix" values="0 0 0 0 0.976471 0 0 0 0 0.721569 0 0 0 0 0.341176 0 0 0 1 0"/>
<feBlend mode="normal" in2="BackgroundImageFix" result="effect1_dropShadow_34_14"/>
<feBlend mode="normal" in="SourceGraphic" in2="effect1_dropShadow_34_14" result="shape"/>
</filter>
</defs>
</svg>
