<svg width="139" height="69" viewBox="0 0 139 69" fill="none" xmlns="http://www.w3.org/2000/svg">
<g filter="url(#filter0_d_35_16)">
<rect width="82" height="29" transform="translate(36)" fill="#EFE5D1"/>
<path d="M57.7414 24.192C56.5094 24.192 55.5174 23.816 54.7654 23.064C54.0294 22.312 53.6614 21.304 53.6614 20.04V11.136C53.6614 9.888 54.0294 8.888 54.7654 8.136C55.5174 7.384 56.5094 7.008 57.7414 7.008C58.9894 7.008 59.9814 7.384 60.7174 8.136C61.4694 8.872 61.8454 9.872 61.8454 11.136V11.544C61.8454 11.704 61.7654 11.784 61.6054 11.784L60.3574 11.856C60.1974 11.856 60.1174 11.776 60.1174 11.616V11.016C60.1174 10.264 59.9014 9.656 59.4694 9.192C59.0374 8.728 58.4614 8.496 57.7414 8.496C57.0374 8.496 56.4614 8.728 56.0134 9.192C55.5814 9.656 55.3654 10.264 55.3654 11.016V20.184C55.3654 20.936 55.5814 21.544 56.0134 22.008C56.4614 22.472 57.0374 22.704 57.7414 22.704C58.4614 22.704 59.0374 22.472 59.4694 22.008C59.9014 21.544 60.1174 20.936 60.1174 20.184V19.584C60.1174 19.424 60.1974 19.344 60.3574 19.344L61.6054 19.416C61.7654 19.416 61.8454 19.496 61.8454 19.656V20.04C61.8454 21.304 61.4694 22.312 60.7174 23.064C59.9654 23.816 58.9734 24.192 57.7414 24.192ZM70.9003 24.192C69.6683 24.192 68.6683 23.808 67.9003 23.04C67.1483 22.272 66.7723 21.256 66.7723 19.992V11.208C66.7723 9.944 67.1483 8.928 67.9003 8.16C68.6683 7.392 69.6683 7.008 70.9003 7.008C72.1483 7.008 73.1563 7.392 73.9243 8.16C74.6923 8.928 75.0763 9.944 75.0763 11.208V19.992C75.0763 21.24 74.6923 22.256 73.9243 23.04C73.1563 23.808 72.1483 24.192 70.9003 24.192ZM70.9003 22.704C71.6363 22.704 72.2283 22.464 72.6763 21.984C73.1403 21.488 73.3723 20.856 73.3723 20.088V11.136C73.3723 10.352 73.1403 9.72 72.6763 9.24C72.2283 8.744 71.6363 8.496 70.9003 8.496C70.1803 8.496 69.5963 8.744 69.1483 9.24C68.7003 9.72 68.4763 10.352 68.4763 11.136V20.088C68.4763 20.856 68.7003 21.488 69.1483 21.984C69.5963 22.464 70.1803 22.704 70.9003 22.704ZM84.2457 24.192C83.0137 24.192 82.0137 23.808 81.2457 23.04C80.4937 22.272 80.1177 21.256 80.1177 19.992V11.208C80.1177 9.944 80.4937 8.928 81.2457 8.16C82.0137 7.392 83.0137 7.008 84.2457 7.008C85.4937 7.008 86.5017 7.392 87.2697 8.16C88.0377 8.928 88.4217 9.944 88.4217 11.208V19.992C88.4217 21.24 88.0377 22.256 87.2697 23.04C86.5017 23.808 85.4937 24.192 84.2457 24.192ZM84.2457 22.704C84.9817 22.704 85.5737 22.464 86.0217 21.984C86.4857 21.488 86.7177 20.856 86.7177 20.088V11.136C86.7177 10.352 86.4857 9.72 86.0217 9.24C85.5737 8.744 84.9817 8.496 84.2457 8.496C83.5257 8.496 82.9417 8.744 82.4937 9.24C82.0457 9.72 81.8217 10.352 81.8217 11.136V20.088C81.8217 20.856 82.0457 21.488 82.4937 21.984C82.9417 22.464 83.5257 22.704 84.2457 22.704ZM94.111 24C93.951 24 93.871 23.92 93.871 23.76V7.44C93.871 7.28 93.951 7.2 94.111 7.2H95.335C95.495 7.2 95.575 7.28 95.575 7.44V22.416C95.575 22.48 95.607 22.512 95.671 22.512H101.167C101.327 22.512 101.407 22.592 101.407 22.752V23.76C101.407 23.92 101.327 24 101.167 24H94.111Z" fill="#10064C"/>
</g>
<g filter="url(#filter1_d_35_16)">
<rect width="124" height="30" transform="translate(15 29)" fill="#EFE5D1"/>
<path d="M42.4968 53.5C42.3528 53.5 42.2648 53.428 42.2328 53.284L41.6328 50.308C41.6328 50.276 41.6168 50.252 41.5848 50.236C41.5688 50.22 41.5448 50.212 41.5128 50.212H37.1688C37.1368 50.212 37.1048 50.22 37.0728 50.236C37.0568 50.252 37.0488 50.276 37.0488 50.308L36.4488 53.284C36.4328 53.428 36.3448 53.5 36.1848 53.5H34.9608C34.8808 53.5 34.8168 53.476 34.7688 53.428C34.7368 53.38 34.7288 53.316 34.7448 53.236L38.3448 36.916C38.3768 36.772 38.4648 36.7 38.6088 36.7H40.0488C40.2088 36.7 40.2968 36.772 40.3128 36.916L43.9608 53.236V53.284C43.9608 53.428 43.8888 53.5 43.7448 53.5H42.4968ZM37.3608 48.724C37.3608 48.788 37.3848 48.82 37.4328 48.82H41.2248C41.2728 48.82 41.2968 48.788 41.2968 48.724L39.3768 39.292C39.3608 39.244 39.3448 39.22 39.3288 39.22C39.3128 39.22 39.2968 39.244 39.2808 39.292L37.3608 48.724ZM52.5806 36.676C53.7486 36.676 54.6926 37.108 55.4126 37.972C56.1326 38.82 56.4926 39.94 56.4926 41.332C56.4926 42.708 56.1406 43.82 55.4366 44.668C54.7326 45.5 53.8046 45.916 52.6526 45.916H50.1806C50.1166 45.916 50.0846 45.948 50.0846 46.012V53.26C50.0846 53.42 50.0046 53.5 49.8446 53.5H48.6206C48.4606 53.5 48.3806 53.42 48.3806 53.26V36.916C48.3806 36.756 48.4606 36.676 48.6206 36.676H52.5806ZM52.3646 44.524C53.0846 44.524 53.6686 44.236 54.1166 43.66C54.5646 43.084 54.7886 42.316 54.7886 41.356C54.7886 40.396 54.5646 39.628 54.1166 39.052C53.6686 38.46 53.0846 38.164 52.3646 38.164H50.1806C50.1166 38.164 50.0846 38.196 50.0846 38.26V44.428C50.0846 44.492 50.1166 44.524 50.1806 44.524H52.3646ZM65.5977 36.676C66.7657 36.676 67.7097 37.108 68.4297 37.972C69.1497 38.82 69.5097 39.94 69.5097 41.332C69.5097 42.708 69.1577 43.82 68.4537 44.668C67.7497 45.5 66.8217 45.916 65.6697 45.916H63.1977C63.1337 45.916 63.1017 45.948 63.1017 46.012V53.26C63.1017 53.42 63.0217 53.5 62.8617 53.5H61.6377C61.4777 53.5 61.3977 53.42 61.3977 53.26V36.916C61.3977 36.756 61.4777 36.676 61.6377 36.676H65.5977ZM65.3817 44.524C66.1017 44.524 66.6857 44.236 67.1337 43.66C67.5817 43.084 67.8057 42.316 67.8057 41.356C67.8057 40.396 67.5817 39.628 67.1337 39.052C66.6857 38.46 66.1017 38.164 65.3817 38.164H63.1977C63.1337 38.164 63.1017 38.196 63.1017 38.26V44.428C63.1017 44.492 63.1337 44.524 63.1977 44.524H65.3817ZM80.1421 53.5C79.9981 53.5 79.9101 53.428 79.8781 53.284L79.2781 50.308C79.2781 50.276 79.2621 50.252 79.2301 50.236C79.2141 50.22 79.1901 50.212 79.1581 50.212H74.8141C74.7821 50.212 74.7501 50.22 74.7181 50.236C74.7021 50.252 74.6941 50.276 74.6941 50.308L74.0941 53.284C74.0781 53.428 73.9901 53.5 73.8301 53.5H72.6061C72.5261 53.5 72.4621 53.476 72.4141 53.428C72.3821 53.38 72.3741 53.316 72.3901 53.236L75.9901 36.916C76.0221 36.772 76.1101 36.7 76.2541 36.7H77.6941C77.8541 36.7 77.9421 36.772 77.9581 36.916L81.6061 53.236V53.284C81.6061 53.428 81.5341 53.5 81.3901 53.5H80.1421ZM75.0061 48.724C75.0061 48.788 75.0301 48.82 75.0781 48.82H78.8701C78.9181 48.82 78.9421 48.788 78.9421 48.724L77.0221 39.292C77.0061 39.244 76.9901 39.22 76.9741 39.22C76.9581 39.22 76.9421 39.244 76.9261 39.292L75.0061 48.724ZM92.7699 53.5C92.6259 53.5 92.5299 53.436 92.4819 53.308L90.0339 45.892C90.0179 45.844 89.9859 45.82 89.9379 45.82H87.8499C87.7859 45.82 87.7539 45.852 87.7539 45.916V53.26C87.7539 53.42 87.6739 53.5 87.5139 53.5H86.2899C86.1299 53.5 86.0499 53.42 86.0499 53.26V36.94C86.0499 36.78 86.1299 36.7 86.2899 36.7H90.2499C91.4179 36.7 92.3619 37.132 93.0819 37.996C93.8019 38.844 94.1619 39.956 94.1619 41.332C94.1619 42.372 93.9379 43.268 93.4899 44.02C93.0419 44.772 92.4339 45.3 91.6659 45.604C91.6019 45.62 91.5779 45.66 91.5939 45.724L94.2099 53.236L94.2339 53.332C94.2339 53.444 94.1619 53.5 94.0179 53.5H92.7699ZM87.8499 38.188C87.7859 38.188 87.7539 38.22 87.7539 38.284V44.356C87.7539 44.42 87.7859 44.452 87.8499 44.452H90.0099C90.7459 44.452 91.3379 44.172 91.7859 43.612C92.2339 43.036 92.4579 42.276 92.4579 41.332C92.4579 40.388 92.2339 39.628 91.7859 39.052C91.3379 38.476 90.7459 38.188 90.0099 38.188H87.8499ZM106.698 37.948C106.698 38.108 106.618 38.188 106.458 38.188H100.89C100.826 38.188 100.794 38.22 100.794 38.284V44.236C100.794 44.3 100.826 44.332 100.89 44.332H104.394C104.554 44.332 104.634 44.412 104.634 44.572V45.604C104.634 45.764 104.554 45.844 104.394 45.844H100.89C100.826 45.844 100.794 45.876 100.794 45.94V51.916C100.794 51.98 100.826 52.012 100.89 52.012H106.458C106.618 52.012 106.698 52.092 106.698 52.252V53.26C106.698 53.42 106.618 53.5 106.458 53.5H99.3305C99.1705 53.5 99.0905 53.42 99.0905 53.26V36.94C99.0905 36.78 99.1705 36.7 99.3305 36.7H106.458C106.618 36.7 106.698 36.78 106.698 36.94V37.948ZM112.02 53.5C111.86 53.5 111.78 53.42 111.78 53.26V36.94C111.78 36.78 111.86 36.7 112.02 36.7H113.244C113.404 36.7 113.484 36.78 113.484 36.94V51.916C113.484 51.98 113.516 52.012 113.58 52.012H119.076C119.236 52.012 119.316 52.092 119.316 52.252V53.26C119.316 53.42 119.236 53.5 119.076 53.5H112.02Z" fill="#10064C"/>
</g>
<path d="M131.286 64.25L124 69V59H139L131.286 64.25Z" fill="#F9B857"/>
<path d="M7.71429 33.75L15 29V39H0L7.71429 33.75Z" fill="#F9B857"/>
<path d="M28.7143 4.75L36 0V10H21L28.7143 4.75Z" fill="#F9B857"/>
<defs>
<filter id="filter0_d_35_16" x="21" y="0" width="97" height="39" filterUnits="userSpaceOnUse" color-interpolation-filters="sRGB">
<feFlood flood-opacity="0" result="BackgroundImageFix"/>
<feColorMatrix in="SourceAlpha" type="matrix" values="0 0 0 0 0 0 0 0 0 0 0 0 0 0 0 0 0 0 127 0" result="hardAlpha"/>
<feOffset dx="-15" dy="10"/>
<feComposite in2="hardAlpha" operator="out"/>
<feColorMatrix type="matrix" values="0 0 0 0 0.976471 0 0 0 0 0.721569 0 0 0 0 0.341176 0 0 0 1 0"/>
<feBlend mode="normal" in2="BackgroundImageFix" result="effect1_dropShadow_35_16"/>
<feBlend mode="normal" in="SourceGraphic" in2="effect1_dropShadow_35_16" result="shape"/>
</filter>
<filter id="filter1_d_35_16" x="0" y="29" width="139" height="40" filterUnits="userSpaceOnUse" color-interpolation-filters="sRGB">
<feFlood flood-opacity="0" result="BackgroundImageFix"/>
<feColorMatrix in="SourceAlpha" type="matrix" values="0 0 0 0 0 0 0 0 0 0 0 0 0 0 0 0 0 0 127 0" result="hardAlpha"/>
<feOffset dx="-15" dy="10"/>
<feComposite in2="hardAlpha" operator="out"/>
<feColorMatrix type="matrix" values="0 0 0 0 0.976471 0 0 0 0 0.721569 0 0 0 0 0.341176 0 0 0 1 0"/>
<feBlend mode="normal" in2="BackgroundImageFix" result="effect1_dropShadow_35_16"/>
<feBlend mode="normal" in="SourceGraphic" in2="effect1_dropShadow_35_16" result="shape"/>
</filter>
</defs>
</svg>
