<svg width="26" height="28" viewBox="0 0 26 28" fill="none" xmlns="http://www.w3.org/2000/svg">
<path d="M22.5029 18.6986H15.4254H8.348L5.34033 3.69482H24.9999L22.5029 18.6986Z" stroke="black" stroke-width="2" stroke-linecap="round" stroke-linejoin="round"/>
<path d="M11.4681 25.0002C11.8911 25.0002 12.2341 24.5971 12.2341 24.0999C12.2341 23.6028 11.8911 23.1997 11.4681 23.1997C11.0451 23.1997 10.7021 23.6028 10.7021 24.0999C10.7021 24.5971 11.0451 25.0002 11.4681 25.0002Z" stroke="black" stroke-width="5" stroke-linecap="round" stroke-linejoin="round"/>
<path d="M19.1278 25.0002C19.5508 25.0002 19.8937 24.5971 19.8937 24.0999C19.8937 23.6028 19.5508 23.1997 19.1278 23.1997C18.7047 23.1997 18.3618 23.6028 18.3618 24.0999C18.3618 24.5971 18.7047 25.0002 19.1278 25.0002Z" stroke="black" stroke-width="5" stroke-linecap="round" stroke-linejoin="round"/>
<path d="M23.4678 11.1968H16.3188" stroke="black" stroke-width="2" stroke-linecap="round" stroke-linejoin="round"/>
<path d="M5.37108 3.80269L4.05873 2.26631C3.42632 1.5211 2.57894 1.08205 1.68427 1.03601L1 1" stroke="black" stroke-width="2" stroke-linecap="round" stroke-linejoin="round"/>
</svg>
